<?xml version="1.0" encoding="UTF-8" standalone="no"?>
<svg
   width="2181.2573"
   height="1915.2469"
   viewBox="0 0 2181.2573 1915.2469"
   version="1.1"
   xml:space="preserve"
   style="clip-rule:evenodd;fill-rule:evenodd;stroke-linejoin:round;stroke-miterlimit:2"
   id="svg10"
   sodipodi:docname="ptfs-logo.svg"
   inkscape:version="1.3 (0e150ed, 2023-07-21)"
   xmlns:inkscape="http://www.inkscape.org/namespaces/inkscape"
   xmlns:sodipodi="http://sodipodi.sourceforge.net/DTD/sodipodi-0.dtd"
   xmlns="http://www.w3.org/2000/svg"
   xmlns:svg="http://www.w3.org/2000/svg"><defs
   id="defs10" /><sodipodi:namedview
   id="namedview10"
   pagecolor="#ffffff"
   bordercolor="#000000"
   borderopacity="0.25"
   inkscape:showpageshadow="2"
   inkscape:pageopacity="0.0"
   inkscape:pagecheckerboard="0"
   inkscape:deskcolor="#d1d1d1"
   inkscape:zoom="0.097440132"
   inkscape:cx="1082.7161"
   inkscape:cy="954.4322"
   inkscape:window-width="1312"
   inkscape:window-height="449"
   inkscape:window-x="0"
   inkscape:window-y="38"
   inkscape:window-maximized="0"
   inkscape:current-layer="g10" />&#10;    <g
   transform="matrix(11.2636,0,0,11.2636,-2720.2655,-1943.6557)"
   id="g10">&#10;        &#10;        <g
   transform="matrix(1.06308,0,0,1.0592878,86.148113,-5.1167519)"
   id="g9">&#10;            &#10;            <g
   transform="matrix(3.68519,0,0,3.81868,-546.241,133.451)"
   id="g8">&#10;                <g
   transform="translate(205.963,27.3509)"
   id="g3">&#10;                    <path
   d="M 0,5.289 C -0.64,5.494 -1.3,5.645 -1.966,5.738 L -1.967,5.739 C -3.205,5.917 -4.518,5.896 -5.744,5.681 -7.896,5.307 -9.897,4.355 -11.554,2.92 c 1.181,-0.38 2.414,-0.571 3.67,-0.571 2.319,0 4.571,0.662 6.517,1.916 0.374,0.241 0.732,0.501 1.066,0.774 C -0.199,5.12 -0.1,5.203 0,5.289 M 5.365,-2.82 C 5.044,-3.912 4.882,-5.051 4.882,-6.203 c 0,-1.153 0.162,-2.291 0.483,-3.384 0.295,-1.01 0.722,-1.977 1.273,-2.877 0.545,0.893 0.97,1.853 1.266,2.857 0.325,1.102 0.489,2.247 0.489,3.404 0,1.157 -0.164,2.302 -0.489,3.403 C 7.608,-1.796 7.183,-0.836 6.638,0.058 6.087,-0.843 5.66,-1.81 5.365,-2.819 Z M 5.816,14.412 C 5.816,11.31 4.752,8.284 2.813,5.862 4.265,5.081 5.55,4.056 6.638,2.812 c 1.084,1.241 2.365,2.264 3.814,3.047 -1.94,2.421 -3.006,5.449 -3.006,8.553 0,1.527 0.251,3.026 0.745,4.459 H 5.071 C 5.565,17.438 5.816,15.939 5.816,14.412 M 24.825,2.922 c -1.658,1.435 -3.66,2.387 -5.811,2.76 h -10e-4 c -1.235,0.215 -2.539,0.235 -3.788,0.054 -0.662,-0.093 -1.319,-0.244 -1.958,-0.45 0.097,-0.084 0.197,-0.167 0.298,-0.248 0.332,-0.272 0.691,-0.532 1.066,-0.773 1.944,-1.254 4.198,-1.916 6.516,-1.916 1.257,0 2.493,0.192 3.678,0.573 M 27.434,2.24 C 27.042,2.037 26.637,1.851 26.229,1.688 24.612,1.039 22.903,0.711 21.147,0.711 c -2.81,0 -5.511,0.848 -7.811,2.452 C 12.976,3.412 12.627,3.68 12.3,3.959 12.052,4.168 11.813,4.385 11.59,4.604 10.09,3.858 8.735,2.785 7.66,1.49 8.147,0.777 8.568,0.013 8.914,-0.786 9.182,-1.405 9.404,-2.048 9.575,-2.698 9.877,-3.836 10.03,-5.015 10.03,-6.203 10.03,-7.391 9.877,-8.57 9.575,-9.708 9.404,-10.358 9.182,-11.002 8.914,-11.62 8.55,-12.463 8.1,-13.269 7.579,-14.014 7.337,-14.365 7.069,-14.713 6.783,-15.05 l -0.145,-0.17 -0.145,0.17 c -0.285,0.334 -0.554,0.682 -0.797,1.035 -0.526,0.752 -0.977,1.562 -1.341,2.409 -0.267,0.619 -0.49,1.264 -0.661,1.918 -0.298,1.128 -0.45,2.301 -0.45,3.485 0,1.183 0.152,2.356 0.449,3.484 0.173,0.655 0.395,1.3 0.662,1.918 C 4.7,0.002 5.123,0.772 5.614,1.49 4.538,2.786 3.182,3.861 1.678,4.608 1.445,4.381 1.206,4.164 0.964,3.96 0.636,3.68 0.287,3.412 -0.072,3.163 -2.372,1.559 -5.073,0.711 -7.884,0.711 c -1.752,0 -3.459,0.328 -5.074,0.974 -0.408,0.163 -0.813,0.349 -1.205,0.552 l -0.209,0.108 0.15,0.182 c 0.28,0.338 0.58,0.667 0.894,0.977 1.064,1.061 2.286,1.933 3.631,2.594 1.23,0.606 2.54,1.021 3.891,1.233 0.703,0.11 1.422,0.166 2.136,0.166 1.706,0 3.37,-0.311 4.946,-0.925 1.873,2.185 2.903,4.964 2.903,7.84 0,1.584 -0.304,3.124 -0.904,4.577 -0.174,0.427 -0.374,0.842 -0.592,1.237 l -0.158,0.283 h 8.213 L 10.581,20.226 C 10.362,19.832 10.162,19.416 9.987,18.989 9.388,17.536 9.084,15.996 9.084,14.412 c 0,-2.877 1.031,-5.657 2.905,-7.842 1.578,0.615 3.245,0.927 4.955,0.927 0.718,0 1.435,-0.056 2.131,-0.166 1.355,-0.211 2.667,-0.626 3.902,-1.234 1.341,-0.661 2.56,-1.532 3.622,-2.588 0.312,-0.31 0.612,-0.639 0.893,-0.978 l 0.151,-0.182 z"
   style="fill:#078136;fill-rule:nonzero"
   id="path2" />&#10;                </g>&#10;                <g
   transform="translate(219.757,19.1682)"
   id="g4">&#10;                    <path
   d="M 0,6.208 C 0.183,5.548 0.44,4.913 0.769,4.314 1.173,3.573 1.685,2.892 2.288,2.287 2.893,1.683 3.575,1.171 4.315,0.767 4.914,0.439 5.55,0.181 6.209,-0.001 6.028,0.652 5.773,1.284 5.448,1.879 5.041,2.627 4.527,3.313 3.921,3.919 3.314,4.526 2.628,5.04 1.881,5.447 1.285,5.771 0.653,6.027 0,6.208 M -0.535,7.949 C 0.153,7.827 0.835,7.633 1.49,7.374 1.973,7.183 2.443,6.954 2.889,6.694 3.67,6.24 4.394,5.683 5.039,5.038 5.685,4.393 6.241,3.669 6.695,2.887 6.956,2.441 7.185,1.97 7.375,1.489 7.635,0.833 7.828,0.151 7.949,-0.535 8.009,-0.857 8.053,-1.192 8.08,-1.531 L 8.11,-1.9 7.74,-1.872 c -0.337,0.027 -0.672,0.071 -0.995,0.13 -0.694,0.122 -1.38,0.318 -2.037,0.58 -0.481,0.191 -0.953,0.421 -1.4,0.683 C 2.532,-0.029 1.813,0.526 1.17,1.169 0.526,1.812 -0.027,2.531 -0.478,3.306 -0.74,3.754 -0.97,4.226 -1.16,4.707 -1.423,5.364 -1.618,6.049 -1.74,6.742 -1.8,7.067 -1.844,7.402 -1.87,7.739 l -0.029,0.369 0.37,-0.029 c 0.336,-0.027 0.671,-0.071 0.994,-0.13"
   style="fill:#078136;fill-rule:nonzero"
   id="path3" />&#10;                </g>&#10;                <g
   transform="translate(225.966,39.1486)"
   id="g5">&#10;                    <path
   d="M 0,6.211 C -0.659,6.029 -1.295,5.771 -1.894,5.442 -2.634,5.038 -3.316,4.527 -3.921,3.923 -4.524,3.319 -5.036,2.637 -5.44,1.896 -5.769,1.297 -6.026,0.661 -6.209,0.002 c 0.653,0.181 1.285,0.436 1.881,0.761 0.747,0.407 1.433,0.921 2.04,1.528 0.606,0.606 1.12,1.292 1.527,2.04 0.325,0.595 0.58,1.227 0.761,1.88 M 1.741,6.747 C 1.619,6.058 1.426,5.377 1.166,4.721 0.976,4.24 0.747,3.77 0.486,3.323 0.033,2.541 -0.524,1.817 -1.17,1.172 -1.815,0.527 -2.539,-0.03 -3.32,-0.484 -3.767,-0.744 -4.237,-0.973 -4.719,-1.164 -5.374,-1.423 -6.056,-1.617 -6.743,-1.739 -7.065,-1.798 -7.4,-1.841 -7.738,-1.869 l -0.37,-0.03 0.029,0.37 c 0.026,0.337 0.07,0.672 0.129,0.995 0.123,0.695 0.318,1.38 0.58,2.037 0.191,0.482 0.422,0.954 0.683,1.401 0.451,0.775 1.005,1.495 1.648,2.137 0.643,0.643 1.362,1.198 2.137,1.648 0.449,0.262 0.92,0.492 1.401,0.683 0.657,0.262 1.343,0.457 2.035,0.58 0.326,0.059 0.661,0.103 0.997,0.13 L 1.901,8.11 1.871,7.741 C 1.844,7.403 1.8,7.068 1.741,6.747"
   style="fill:#078136;fill-rule:nonzero"
   id="path4" />&#10;                </g>&#10;                <g
   transform="translate(199.398,25.3772)"
   id="g6">&#10;                    <path
   d="m 0,-6.21 c 0.66,0.182 1.296,0.44 1.895,0.769 0.74,0.404 1.421,0.915 2.026,1.519 0.604,0.605 1.116,1.287 1.52,2.027 0.329,0.599 0.586,1.234 0.768,1.894 C 5.556,-0.182 4.925,-0.438 4.329,-0.762 3.582,-1.169 2.896,-1.683 2.289,-2.29 1.683,-2.896 1.168,-3.582 0.761,-4.33 0.437,-4.925 0.182,-5.557 0,-6.21 m -1.74,-0.536 c 0.121,0.689 0.315,1.37 0.575,2.026 0.19,0.482 0.419,0.952 0.679,1.398 0.454,0.782 1.011,1.506 1.657,2.151 0.644,0.645 1.368,1.202 2.149,1.656 0.447,0.26 0.917,0.489 1.399,0.68 0.656,0.26 1.338,0.453 2.025,0.575 0.323,0.059 0.658,0.103 0.995,0.13 L 8.109,1.899 8.08,1.53 C 8.054,1.193 8.01,0.858 7.95,0.535 7.828,-0.16 7.633,-0.845 7.37,-1.502 7.179,-1.984 6.949,-2.456 6.687,-2.903 6.237,-3.678 5.683,-4.398 5.039,-5.04 4.396,-5.683 3.678,-6.238 2.903,-6.688 2.455,-6.95 1.983,-7.18 1.502,-7.371 0.844,-7.633 0.159,-7.828 -0.534,-7.951 -0.858,-8.01 -1.194,-8.054 -1.53,-8.081 l -0.37,-0.028 0.03,0.369 c 0.027,0.337 0.07,0.672 0.13,0.994"
   style="fill:#078136;fill-rule:nonzero"
   id="path5" />&#10;                </g>&#10;                <g
   transform="translate(205.607,45.3576)"
   id="g7">&#10;                    <path
   d="m 0,-6.207 c -0.182,0.659 -0.439,1.295 -0.769,1.894 -0.403,0.74 -0.915,1.422 -1.519,2.027 -0.605,0.604 -1.286,1.115 -2.027,1.52 -0.598,0.328 -1.234,0.586 -1.894,0.768 0.182,-0.653 0.437,-1.285 0.761,-1.88 0.408,-0.748 0.922,-1.434 1.528,-2.04 0.607,-0.607 1.293,-1.121 2.04,-1.528 0.596,-0.325 1.227,-0.58 1.88,-0.761 m 0.536,-1.741 c -0.688,0.122 -1.37,0.316 -2.026,0.575 -0.482,0.191 -0.951,0.42 -1.398,0.68 -0.782,0.454 -1.506,1.011 -2.15,1.656 -0.646,0.645 -1.203,1.369 -1.657,2.15 -0.26,0.447 -0.489,0.917 -0.679,1.399 -0.261,0.656 -0.454,1.338 -0.575,2.024 -0.06,0.323 -0.103,0.658 -0.13,0.996 l -0.03,0.369 0.37,-0.028 c 0.335,-0.027 0.67,-0.071 0.994,-0.13 0.694,-0.123 1.38,-0.318 2.037,-0.58 0.481,-0.191 0.953,-0.421 1.401,-0.683 0.776,-0.45 1.495,-1.005 2.137,-1.648 0.644,-0.643 1.198,-1.362 1.649,-2.137 0.261,-0.448 0.491,-0.92 0.682,-1.401 0.262,-0.657 0.457,-1.342 0.58,-2.035 0.06,-0.325 0.104,-0.66 0.13,-0.997 l 0.029,-0.37 -0.37,0.03 c -0.338,0.028 -0.672,0.071 -0.994,0.13"
   style="fill:#078136;fill-rule:nonzero"
   id="path6" />&#10;                </g>&#10;            </g>&#10;        </g>&#10;    </g>&#10;</svg>
